<?xml version="1.0" encoding="UTF-8" standalone="no"?>
<!-- Created with Inkscape (http://www.inkscape.org/) -->

<svg
   xmlns:dc="http://purl.org/dc/elements/1.1/"
   xmlns:cc="http://creativecommons.org/ns#"
   xmlns:rdf="http://www.w3.org/1999/02/22-rdf-syntax-ns#"
   xmlns:svg="http://www.w3.org/2000/svg"
   xmlns="http://www.w3.org/2000/svg"
   xmlns:sodipodi="http://sodipodi.sourceforge.net/DTD/sodipodi-0.dtd"
   xmlns:inkscape="http://www.inkscape.org/namespaces/inkscape"
   width="349.53665"
   height="102.55434"
   id="svg3820"
   sodipodi:version="0.32"
   inkscape:version="0.91 r13725"
   version="1.0"
   sodipodi:docname="Cisco_academy_logo.svg"
   inkscape:output_extension="org.inkscape.output.svg.inkscape"
   inkscape:export-filename="Cisco_academy_logo.png"
   inkscape:export-xdpi="90"
   inkscape:export-ydpi="90">
  <metadata
     id="metadata39">
    <rdf:RDF>
      <cc:Work
         rdf:about="">
        <dc:format>image/svg+xml</dc:format>
        <dc:type
           rdf:resource="http://purl.org/dc/dcmitype/StillImage" />
        <dc:title></dc:title>
      </cc:Work>
    </rdf:RDF>
  </metadata>
  <defs
     id="defs3822">
    <inkscape:perspective
       sodipodi:type="inkscape:persp3d"
       inkscape:vp_x="0 : 47.436245 : 1"
       inkscape:vp_y="0 : 1000 : 0"
       inkscape:vp_z="180 : 47.436245 : 1"
       inkscape:persp3d-origin="90 : 31.624163 : 1"
       id="perspective41" />
  </defs>
  <sodipodi:namedview
     id="base"
     pagecolor="#ffffff"
     bordercolor="#666666"
     borderopacity="1.0"
     gridtolerance="10000"
     guidetolerance="10"
     objecttolerance="10"
     inkscape:pageopacity="0.0"
     inkscape:pageshadow="2"
     inkscape:zoom="1.979899"
     inkscape:cx="147.27266"
     inkscape:cy="62.589159"
     inkscape:document-units="px"
     inkscape:current-layer="layer1"
     showgrid="false"
     inkscape:window-width="1347"
     inkscape:window-height="722"
     inkscape:window-x="84"
     inkscape:window-y="0"
     inkscape:snap-global="true"
     fit-margin-top="0"
     fit-margin-left="0"
     fit-margin-right="0"
     fit-margin-bottom="0"
     inkscape:window-maximized="0" />
  <g
     inkscape:label="Layer 1"
     inkscape:groupmode="layer"
     id="layer1"
     transform="translate(-55.745577,-92.738226)">
    <rect
       style="opacity:1;fill:#005568;fill-opacity:1;fill-rule:nonzero;stroke:#15495d;stroke-width:4.89093351;stroke-linecap:round;stroke-linejoin:round;stroke-miterlimit:4;stroke-dasharray:none;stroke-dashoffset:0;stroke-opacity:1"
       id="rect2475"
       width="344.64572"
       height="97.663414"
       x="58.191044"
       y="95.183693"
       rx="12.48996"
       ry="9.5221777" />
    <path
       style="fill:#ffffff;fill-opacity:1;fill-rule:nonzero;stroke:none;stroke-width:5;stroke-linecap:round;stroke-linejoin:round;stroke-miterlimit:4;stroke-dasharray:none;stroke-dashoffset:0;stroke-opacity:1"
       d="m 20.146484,7.78125 c -8.359469,0 -15.0898434,5.429648 -15.0898434,12.173828 l 0,6.75586 0,11.18164 0,6.873047 0,23.681641 0,7.480468 0,12.173828 0,1.203126 c 0,6.194659 6.7303744,11.181642 15.0898434,11.181642 l 140.519536,0 c 8.35946,0 15.08984,-4.986983 15.08984,-11.181642 l 0,-2.269532 c 0.59422,-1.527375 0,-4.700266 0,-11.107422 l 0,-31.162109 0,-6.873047 c 0,-5.886028 0.59469,-8.800457 0,-10.203125 l 0,-7.734375 c 0,-6.74418 -6.73038,-12.173828 -15.08984,-12.173828 l -140.519536,0 z"
       transform="translate(54.9999,89.7794)"
       id="rect3259"
       inkscape:connector-curvature="0" />
    <g
       id="g3419"
       transform="matrix(0.831228,0,0,0.831228,26.422258,23.700252)">
      <g
         id="g3358">
        <path
           id="path2894"
           style="fill:#005568;fill-opacity:1;fill-rule:nonzero;stroke:none"
           d="m 129.78041,115.8426 c 0,-1.96418 -1.60416,-3.56151 -3.57062,-3.56151 -1.96875,0 -3.57291,1.59733 -3.57291,3.56151 l 0,17.30625 c 0,1.97557 1.60416,3.56834 3.57291,3.56834 1.96646,0 3.57062,-1.59277 3.57062,-3.56834 l 0,-17.30625 z"
           inkscape:connector-curvature="0" />
        <path
           id="path2882"
           style="fill:#005568;fill-opacity:1;fill-rule:nonzero;stroke:none"
           d="m 70.927203,125.66438 c 0,-1.96418 -1.60416,-3.55695 -3.570624,-3.55695 -1.966463,0 -3.572902,1.59277 -3.572902,3.55695 l 0,7.48304 c 0,1.97558 1.606439,3.57063 3.572902,3.57063 1.966464,0 3.570624,-1.59505 3.570624,-3.57063 l 0,-7.48304 z"
           inkscape:connector-curvature="0" />
        <path
           id="path2886"
           style="fill:#005568;fill-opacity:1;fill-rule:nonzero;stroke:none"
           d="m 90.544873,115.8426 c 0,-1.96418 -1.60416,-3.56151 -3.570624,-3.56151 -1.968742,0 -3.572902,1.59733 -3.572902,3.56151 l 0,17.30625 c 0,1.97557 1.60416,3.56834 3.572902,3.56834 1.966464,0 3.570624,-1.59277 3.570624,-3.56834 l 0,-17.30625 z"
           inkscape:connector-curvature="0" />
        <path
           id="path2890"
           style="fill:#005568;fill-opacity:1;fill-rule:nonzero;stroke:none"
           d="m 110.16187,102.40463 c 0,-1.96418 -1.60416,-3.559231 -3.57062,-3.559231 -1.96875,0 -3.57291,1.595051 -3.57291,3.559231 l 0,37.85499 c 0,1.97558 1.60416,3.57063 3.57291,3.57063 1.96646,0 3.57062,-1.59505 3.57062,-3.57063 l 0,-37.85499 z"
           inkscape:connector-curvature="0" />
        <path
           id="path2898"
           style="fill:#005568;fill-opacity:1;fill-rule:nonzero;stroke:none"
           d="m 149.37489,125.66438 c 0,-1.96418 -1.59277,-3.55695 -3.55012,-3.55695 -1.96646,0 -3.57062,1.59277 -3.57062,3.55695 l 0,7.48304 c 0,1.97558 1.60416,3.57063 3.57062,3.57063 1.95735,0 3.55012,-1.59505 3.55012,-3.57063 l 0,-7.48304 z"
           inkscape:connector-curvature="0" />
        <path
           id="path2902"
           style="fill:#005568;fill-opacity:1;fill-rule:nonzero;stroke:none"
           d="m 169.00208,115.8426 c 0,-1.96418 -1.59277,-3.56151 -3.56151,-3.56151 -1.96191,0 -3.55923,1.59733 -3.55923,3.56151 l 0,17.30625 c 0,1.97557 1.59732,3.56834 3.55923,3.56834 1.96874,0 3.56151,-1.59277 3.56151,-3.56834 l 0,-17.30625 z"
           inkscape:connector-curvature="0" />
        <path
           id="path2906"
           style="fill:#005568;fill-opacity:1;fill-rule:nonzero;stroke:none"
           d="m 188.63313,102.40463 c 0,-1.96418 -1.59277,-3.559231 -3.56151,-3.559231 -1.96646,0 -3.55923,1.595051 -3.55923,3.559231 l 0,37.85499 c 0,1.97558 1.59277,3.57063 3.55923,3.57063 1.96874,0 3.56151,-1.59505 3.56151,-3.57063 l 0,-37.85499 z"
           inkscape:connector-curvature="0" />
        <path
           id="path2910"
           style="fill:#005568;fill-opacity:1;fill-rule:nonzero;stroke:none"
           d="m 208.25936,115.8426 c 0,-1.96418 -1.59277,-3.56151 -3.6048,-3.56151 -1.96647,0 -3.56151,1.59733 -3.56151,3.56151 l 0,17.30625 c 0,1.97557 1.59504,3.56834 3.56151,3.56834 2.01203,0 3.6048,-1.59277 3.6048,-3.56834 l 0,-17.30625 z"
           inkscape:connector-curvature="0" />
        <path
           id="path2914"
           style="fill:#005568;fill-opacity:1;fill-rule:nonzero;stroke:none"
           d="m 227.84615,125.66438 c 0,-1.96418 -1.59732,-3.55695 -3.56151,-3.55695 -1.96646,0 -3.56379,1.59277 -3.56379,3.55695 l 0,7.48304 c 0,1.97558 1.59733,3.57063 3.56379,3.57063 1.96419,0 3.56151,-1.59505 3.56151,-3.57063 l 0,-7.48304 z"
           inkscape:connector-curvature="0" />
      </g>
      <g
         transform="matrix(0.9621646,0,0,0.9621646,6.3010123,10.057418)"
         id="g4031">
        <g
           id="g2864"
           transform="matrix(2.36824,0,0,-2.36824,175.732,160.485)">
          <path
             d="m 0,0 c -0.129,0.066 -1.146,0.668 -2.656,0.668 -2.041,0 -3.457,-1.421 -3.457,-3.337 0,-1.859 1.355,-3.34 3.457,-3.34 1.484,0 2.517,0.589 2.656,0.664 l 0,-3.358 c -0.396,-0.111 -1.475,-0.445 -2.877,-0.445 -3.551,0 -6.668,2.448 -6.668,6.479 0,3.736 2.82,6.476 6.668,6.476 1.481,0 2.578,-0.361 2.877,-0.449 L 0,0 Z"
             style="fill:#c5112e;fill-opacity:1;fill-rule:nonzero;stroke:none"
             id="path2866"
             inkscape:connector-curvature="0" />
        </g>
        <g
           id="g2868"
           transform="matrix(2.36824,0,0,-2.36824,97.691,160.485)">
          <path
             d="m 0,0 c -0.127,0.066 -1.143,0.668 -2.652,0.668 -2.045,0 -3.46,-1.421 -3.46,-3.337 0,-1.859 1.356,-3.34 3.46,-3.34 1.484,0 2.516,0.589 2.652,0.664 l 0,-3.358 c -0.393,-0.111 -1.469,-0.445 -2.879,-0.445 -3.549,0 -6.662,2.448 -6.662,6.479 0,3.736 2.82,6.476 6.662,6.476 1.485,0 2.582,-0.361 2.879,-0.449 L 0,0 Z"
             style="fill:#c5112e;fill-opacity:1;fill-rule:nonzero;stroke:none"
             id="path2870"
             inkscape:connector-curvature="0" />
        </g>
        <g
           id="g2872"
           transform="matrix(2.36824,0,0,-2.36824,214.91,166.806)">
          <path
             d="m 0,0 c 0,-3.579 -2.764,-6.479 -6.611,-6.479 -3.848,0 -6.608,2.9 -6.608,6.479 0,3.573 2.76,6.476 6.608,6.476 C -2.764,6.476 0,3.573 0,0 m -6.611,3.29 c -1.873,0 -3.264,-1.474 -3.264,-3.29 0,-1.82 1.391,-3.293 3.264,-3.293 1.871,0 3.265,1.473 3.265,3.293 0,1.816 -1.394,3.29 -3.265,3.29"
             style="fill:#c5112e;fill-opacity:1;fill-rule:nonzero;stroke:none"
             id="path2874"
             inkscape:connector-curvature="0" />
        </g>
        <g
           id="g2876"
           transform="matrix(2.36824,0,0,-2.36824,143.8,158.73)">
          <path
             d="m 0,0 c -0.047,0.015 -1.376,0.382 -2.468,0.382 -1.265,0 -1.953,-0.424 -1.953,-1.026 0,-0.761 0.928,-1.027 1.447,-1.191 l 0.871,-0.277 c 2.049,-0.652 2.983,-2.055 2.983,-3.579 0,-3.143 -2.764,-4.199 -5.18,-4.199 -1.679,0 -3.252,0.309 -3.407,0.342 l 0,2.879 c 0.278,-0.07 1.602,-0.465 2.981,-0.465 1.571,0 2.293,0.459 2.293,1.168 0,0.634 -0.625,1 -1.408,1.246 -0.191,0.064 -0.478,0.154 -0.674,0.218 -1.758,0.556 -3.224,1.589 -3.224,3.66 0,2.34 1.752,3.911 4.662,3.911 1.537,0 2.983,-0.373 3.077,-0.398 L 0,0 Z"
             style="fill:#c5112e;fill-opacity:1;fill-rule:nonzero;stroke:none"
             id="path2878"
             inkscape:connector-curvature="0" />
        </g>
        <path
           d="m 115.44452,181.62412 -7.47653,0 0,-29.62902 7.47653,0 0,29.62902 z"
           style="fill:#c5112e;fill-opacity:1;fill-rule:nonzero;stroke:none"
           id="path2854"
           inkscape:connector-curvature="0" />
      </g>
      <g
         transform="matrix(2.2786367,0,0,-2.2786367,223.72904,181.05524)"
         id="g2916">
        <path
           id="path2918"
           style="fill:#c5112e;fill-opacity:1;fill-rule:nonzero;stroke:none"
           d="m 0,0 0,-0.196 -0.558,0 0,-1.451 -0.229,0 0,1.451 -0.561,0 0,0.196 L 0,0 Z"
           inkscape:connector-curvature="0" />
        <path
           id="path2922"
           style="fill:#c5112e;fill-opacity:1;fill-rule:nonzero;stroke:none"
           d="m 0,0 0.359,0 0.493,-1.351 0.008,0 0.477,1.351 0.352,0 0,-1.647 -0.235,0 0,1.35 -0.008,0 -0.5,-1.35 -0.218,0 -0.487,1.35 -0.011,0 0,-1.35 -0.23,0 L 0,0 Z"
           inkscape:connector-curvature="0" />
      </g>
    </g>
    <path
       style="font-style:normal;font-variant:normal;font-weight:bold;font-stretch:semi-condensed;font-size:23.85038948px;line-height:125%;font-family:'DejaVu Sans';-inkscape-font-specification:'DejaVu Sans Bold Semi-Condensed';text-align:center;writing-mode:lr-tb;text-anchor:middle;fill:#ffffff;fill-opacity:1;stroke:none;stroke-width:1px;stroke-linecap:butt;stroke-linejoin:miter;stroke-opacity:1"
       d="m 250.37526,116.33455 4.50689,0 5.69474,11.9252 0,-11.9252 3.81979,0 0,17.38703 -4.50688,0 -5.6831,-11.92519 0,11.92519 -3.83144,0 0,-17.38703 m 29.53349,10.8305 0,1.18786 -8.76921,0 c 0.0854,0.97825 0.39983,1.71193 0.9433,2.20104 0.55122,0.48912 1.31595,0.73368 2.2942,0.73368 0.7919,0 1.59933,-0.1281 2.4223,-0.38431 0.83072,-0.26396 1.68085,-0.65992 2.55041,-1.18786 l 0,3.21421 c -0.88508,0.37267 -1.77404,0.65216 -2.66686,0.83849 -0.88509,0.1941 -1.77016,0.29115 -2.65522,0.29115 -2.12729,0 -3.78097,-0.59782 -4.96106,-1.79344 -1.17234,-1.20339 -1.7585,-2.88813 -1.7585,-5.05423 0,-2.12728 0.5784,-3.80037 1.73521,-5.0193 1.1568,-1.2189 2.74837,-1.82836 4.77473,-1.82837 1.84777,1e-5 3.32289,0.61723 4.42536,1.85166 1.11021,1.23446 1.66532,2.88426 1.66534,4.94942 m -3.85473,-1.38584 c -10e-6,-0.79189 -0.20963,-1.42852 -0.62887,-1.90989 -0.41149,-0.48911 -0.95495,-0.73367 -1.6304,-0.73368 -0.72204,1e-5 -1.31208,0.22904 -1.77014,0.6871 -0.45031,0.45031 -0.73369,1.10247 -0.85014,1.95647 l 4.87955,0 m 10.81885,-8.80414 0,3.70333 3.86637,0 0,2.9813 -3.86637,0 0,5.5317 c 0,0.60558 0.10481,1.01707 0.31444,1.23445 0.21738,0.20962 0.64827,0.31443 1.29267,0.31443 l 1.93319,0 0,2.9813 -3.21422,0 c -1.48289,0 -2.53488,-0.34161 -3.15598,-1.02482 -0.62111,-0.69098 -0.93166,-1.85943 -0.93166,-3.50536 l 0,-5.5317 -1.86331,0 0,-2.9813 1.86331,0 0,-3.70333 3.76156,0 m 5.10082,3.70333 3.6451,0 1.96813,8.99048 1.97976,-8.99048 3.1327,0 1.97977,8.89731 1.97976,-8.89731 3.64511,0 -3.09776,13.04318 -4.08764,0 -1.99141,-8.96719 -1.96813,8.96719 -4.09928,0 -3.08611,-13.04318 m 26.47067,2.66686 c -0.83073,1e-5 -1.46348,0.33386 -1.89825,1.00153 -0.43478,0.65994 -0.65216,1.61488 -0.65216,2.86485 0,1.24997 0.21738,2.2088 0.65216,2.87648 0.43477,0.65993 1.06752,0.98989 1.89825,0.98989 0.82295,0 1.44794,-0.32996 1.87496,-0.98989 0.43476,-0.66768 0.65215,-1.62651 0.65216,-2.87648 -10e-6,-1.24997 -0.2174,-2.20491 -0.65216,-2.86485 -0.42702,-0.66767 -1.05201,-1.00152 -1.87496,-1.00153 m 0,-2.98129 c 2.02634,1e-5 3.60627,0.60558 4.7398,1.81672 1.1335,1.21117 1.70026,2.88815 1.70027,5.03095 -1e-5,2.14281 -0.56677,3.81979 -1.70027,5.03094 -1.13353,1.21115 -2.71346,1.81673 -4.7398,1.81673 -2.01859,0 -3.60241,-0.60558 -4.75144,-1.81673 -1.14128,-1.21115 -1.71192,-2.88813 -1.71192,-5.03094 0,-2.1428 0.57064,-3.81978 1.71192,-5.03095 1.14903,-1.21114 2.73285,-1.81671 4.75144,-1.81672 m 17.91109,3.86637 c -0.33386,-0.1708 -0.66382,-0.29502 -0.98989,-0.37267 -0.31832,-0.0854 -0.6444,-0.12809 -0.97824,-0.1281 -0.96272,1e-5 -1.70416,0.3455 -2.22433,1.03647 -0.52018,0.68322 -0.78026,1.66534 -0.78026,2.94636 l 0,6.00918 -3.74991,0 0,-13.04318 3.74991,0 0,2.14281 c 0.48135,-0.85401 1.03258,-1.47511 1.65369,-1.86331 0.62886,-0.39594 1.38195,-0.59392 2.25927,-0.59393 0.12421,1e-5 0.26007,0.008 0.4076,0.0233 0.1475,0.008 0.361,0.0311 0.64051,0.0699 l 0.0117,3.77321 m 1.85165,-8.62947 3.74992,0 0,9.86391 4.32055,-4.78638 4.35549,0 -5.72968,5.98589 6.18387,7.05729 -4.55347,0 -4.57676,-5.43854 0,5.43854 -3.74992,0 0,-18.12071 m 14.25435,5.07753 3.74991,0 0,13.04318 -3.74991,0 0,-13.04318 m 0,-5.07753 3.74991,0 0,3.40055 -3.74991,0 0,-3.40055 m 19.15716,10.17834 0,7.94237 -3.7732,0 0,-1.29267 0,-4.78638 c -10e-6,-1.12575 -0.0233,-1.90213 -0.0699,-2.32914 -0.0466,-0.427 -0.12423,-0.74144 -0.23291,-0.9433 -0.14752,-0.27173 -0.34938,-0.48135 -0.60558,-0.62887 -0.24845,-0.15527 -0.53182,-0.23291 -0.85013,-0.23292 -0.78415,10e-6 -1.40137,0.33774 -1.85167,1.01318 -0.44254,0.66769 -0.66381,1.59547 -0.6638,2.78332 l 0,6.41678 -3.74992,0 0,-13.04318 3.74992,0 0,1.90989 c 0.56675,-0.76084 1.16844,-1.31983 1.80508,-1.67698 0.63662,-0.36488 1.33925,-0.54733 2.10787,-0.54734 1.35089,1e-5 2.37571,0.46195 3.07447,1.38583 0.70649,0.92391 1.05974,2.26704 1.05975,4.02941 m 11.47102,5.72969 c -0.52018,0.76085 -1.09082,1.31984 -1.71192,1.67698 -0.62111,0.35713 -1.34314,0.5357 -2.1661,0.5357 -1.42854,0 -2.61252,-0.62498 -3.55193,-1.87496 -0.93166,-1.25773 -1.39749,-2.85707 -1.39749,-4.79802 0,-1.94871 0.46583,-3.54417 1.39749,-4.78639 0.93941,-1.24996 2.12339,-1.87494 3.55193,-1.87495 0.82296,1e-5 1.54499,0.17858 2.1661,0.5357 0.6211,0.35715 1.19174,0.92002 1.71192,1.68862 l 0,-1.93318 3.77321,0 0,11.72722 c -2e-5,2.09622 -0.59783,3.69556 -1.79344,4.79802 -1.18787,1.11022 -2.91532,1.66533 -5.18234,1.66534 -0.7298,-1e-5 -1.44019,-0.0621 -2.13116,-0.18633 -0.68322,-0.12423 -1.37031,-0.31444 -2.06129,-0.57064 l 0,-3.24915 c 0.65992,0.41924 1.30432,0.72979 1.93319,0.93165 0.62886,0.20963 1.26161,0.31444 1.89825,0.31444 1.22667,0 2.12727,-0.29891 2.7018,-0.89672 0.57451,-0.59781 0.86177,-1.53335 0.86178,-2.80661 l 0,-0.89672 m -2.48053,-8.11705 c -0.77639,1e-5 -1.38196,0.31832 -1.81673,0.95494 -0.42702,0.63664 -0.64052,1.53724 -0.64051,2.70181 -10e-6,1.19563 0.20961,2.10399 0.62886,2.72509 0.41924,0.61334 1.0287,0.92001 1.82838,0.92001 0.78413,0 1.39359,-0.31831 1.82837,-0.95495 0.43477,-0.63662 0.65215,-1.53334 0.65216,-2.69015 -10e-6,-1.16457 -0.21739,-2.06517 -0.65216,-2.70181 -0.43478,-0.63662 -1.04424,-0.95493 -1.82837,-0.95494 m -105.66142,36.97509 -6.31196,0 -1.00153,3.16763 -4.05271,0 5.79956,-17.38703 4.80967,0 5.79956,17.38703 -4.06435,0 -0.97824,-3.16763 m -5.31043,-3.22586 4.28561,0 -2.13117,-6.91755 -2.15444,6.91755 m 21.75415,-6.24209 0,3.40054 c -0.50465,-0.38818 -1.01706,-0.67544 -1.53723,-0.86178 -0.51242,-0.18632 -1.04424,-0.27949 -1.59546,-0.2795 -1.04812,1e-5 -1.86332,0.34162 -2.4456,1.02482 -0.58229,0.67546 -0.87343,1.62264 -0.87342,2.84155 -1e-5,1.21892 0.29113,2.16999 0.87342,2.8532 0.58228,0.67545 1.39748,1.01318 2.4456,1.01317 0.59004,1e-5 1.14903,-0.097 1.67698,-0.29114 0.52793,-0.19409 1.01317,-0.48135 1.45571,-0.86178 l 0,3.41219 c -0.58229,0.24068 -1.17622,0.41924 -1.78179,0.5357 -0.60558,0.12422 -1.21116,0.18633 -1.81673,0.18633 -2.11952,0 -3.77709,-0.60169 -4.97271,-1.80508 -1.19563,-1.21115 -1.79344,-2.89201 -1.79344,-5.04259 0,-2.15056 0.59781,-3.82754 1.79344,-5.03094 1.19562,-1.21114 2.85319,-1.81671 4.97271,-1.81673 0.61334,2e-5 1.21891,0.0621 1.81673,0.18633 0.5978,0.11647 1.19173,0.29504 1.78179,0.53571 m 8.50136,6.76615 c -0.78415,0 -1.37419,0.14751 -1.77014,0.44253 -0.39596,0.29503 -0.59394,0.7298 -0.59393,1.30432 -1e-5,0.52794 0.15915,0.94331 0.47747,1.24609 0.31831,0.29503 0.76085,0.44254 1.32761,0.44254 0.7065,0 1.30043,-0.2795 1.78179,-0.83849 0.48135,-0.56676 0.72203,-1.27326 0.72204,-2.11952 l 0,-0.47747 -1.94484,0 m 5.72969,-1.57217 0,7.4416 -3.78485,0 0,-1.93319 c -0.50466,0.79191 -1.07142,1.37031 -1.70028,1.73521 -0.62887,0.35714 -1.3936,0.5357 -2.2942,0.5357 -1.21892,0 -2.2088,-0.39207 -2.96965,-1.17621 -0.75309,-0.79191 -1.12964,-1.81673 -1.12963,-3.07447 -1e-5,-1.52946 0.47359,-2.65133 1.42077,-3.3656 0.94718,-0.71427 2.43395,-1.0714 4.4603,-1.07141 l 2.21269,0 0,-0.32608 c -10e-6,-0.65991 -0.23681,-1.14127 -0.71039,-1.44406 -0.46584,-0.31055 -1.19175,-0.46582 -2.17775,-0.46583 -0.80744,1e-5 -1.55664,0.0893 -2.24762,0.26785 -0.69098,0.17858 -1.33537,0.44643 -1.93318,0.80355 l 0,-3.17927 c 0.80743,-0.21738 1.61486,-0.38042 2.4223,-0.48912 0.8152,-0.11645 1.62651,-0.17467 2.43395,-0.17469 2.11951,2e-5 3.64898,0.46584 4.58841,1.39749 0.9394,0.9239 1.40911,2.43007 1.40913,4.51853 m 11.48266,-3.69169 0,-6.98742 3.7732,0 0,18.12071 -3.7732,0 0,-1.88661 c -0.52019,0.76862 -1.09083,1.3315 -1.71192,1.68863 -0.62111,0.35714 -1.34315,0.5357 -2.1661,0.5357 -1.44407,0 -2.63193,-0.63663 -3.56358,-1.90989 -0.9239,-1.28103 -1.38584,-2.92695 -1.38584,-4.93778 0,-2.01081 0.46194,-3.65285 1.38584,-4.92613 0.93165,-1.28101 2.11951,-1.92152 3.56358,-1.92154 0.81519,2e-5 1.53334,0.18246 2.15445,0.54735 0.62886,0.35715 1.20338,0.91614 1.72357,1.67698 m -2.48054,8.44313 c 0.80743,0 1.42077,-0.32608 1.84002,-0.97824 0.427,-0.65215 0.64051,-1.59933 0.64052,-2.84155 -1e-5,-1.2422 -0.21352,-2.18938 -0.64052,-2.84155 -0.41925,-0.65215 -1.03259,-0.97823 -1.84002,-0.97824 -0.79191,1e-5 -1.40137,0.32609 -1.82837,0.97824 -0.41925,0.65217 -0.62887,1.59935 -0.62887,2.84155 0,1.24222 0.20962,2.1894 0.62887,2.84155 0.427,0.65216 1.03646,0.97824 1.82837,0.97824 m 21.57948,-3.86637 0,1.18786 -8.76921,0 c 0.0854,0.97824 0.39983,1.71192 0.9433,2.20104 0.55122,0.48912 1.31596,0.73368 2.2942,0.73368 0.7919,0 1.59933,-0.1281 2.42231,-0.38431 0.83071,-0.26397 1.68085,-0.65992 2.5504,-1.18786 l 0,3.21421 c -0.88508,0.37266 -1.77403,0.65216 -2.66686,0.83849 -0.88508,0.1941 -1.77015,0.29114 -2.65522,0.29114 -2.12729,0 -3.78097,-0.59781 -4.96107,-1.79343 -1.17233,-1.20339 -1.7585,-2.88813 -1.7585,-5.05424 0,-2.12727 0.5784,-3.80037 1.73521,-5.01929 1.1568,-1.21891 2.74838,-1.82836 4.77474,-1.82838 1.84777,2e-5 3.32289,0.61724 4.42536,1.85167 1.11021,1.23445 1.66532,2.88426 1.66534,4.94942 m -3.85473,-1.38584 c -1e-5,-0.7919 -0.20963,-1.42853 -0.62887,-1.90989 -0.41149,-0.48911 -0.95495,-0.73367 -1.63039,-0.73368 -0.72204,1e-5 -1.31209,0.22904 -1.77015,0.68709 -0.45031,0.45031 -0.73368,1.10247 -0.85014,1.95648 l 4.87955,0 m 17.59665,-2.93471 c 0.47358,-0.80743 1.03645,-1.42077 1.68863,-1.84002 0.65214,-0.427 1.37029,-0.6405 2.15445,-0.64052 1.35088,2e-5 2.37959,0.46196 3.08611,1.38584 0.70649,0.9239 1.05974,2.26704 1.05976,4.02941 l 0,7.94237 -3.77321,0 0,-6.80109 c 0.008,-0.10092 0.0116,-0.20573 0.0116,-0.31443 0.008,-0.10869 0.0116,-0.26397 0.0116,-0.46583 -2e-5,-0.92389 -0.12424,-1.59157 -0.37267,-2.00306 -0.24069,-0.41924 -0.63664,-0.62886 -1.18786,-0.62887 -0.70652,1e-5 -1.25387,0.32609 -1.64204,0.97824 -0.3882,0.65217 -0.59006,1.59547 -0.60558,2.8299 l 0,6.40514 -3.7732,0 0,-6.80109 c -10e-6,-1.44406 -0.11259,-2.37183 -0.33773,-2.78332 -0.22516,-0.41924 -0.62499,-0.62886 -1.19951,-0.62887 -0.71427,1e-5 -1.26938,0.32997 -1.66533,0.98988 -0.3882,0.65217 -0.58229,1.58771 -0.58229,2.80662 l 0,6.41678 -3.7732,0 0,-13.04318 3.7732,0 0,1.90989 c 0.45806,-0.73755 0.986,-1.29266 1.58382,-1.66533 0.5978,-0.37265 1.25773,-0.55898 1.97977,-0.559 0.80742,2e-5 1.52169,0.2174 2.14281,0.65216 0.62885,0.43479 1.10244,1.04424 1.42077,1.82838 m 9.93378,-2.1661 3.76156,0 3.15599,8.85073 2.67851,-8.85073 3.74991,0 -4.93777,14.27762 c -0.49689,1.45183 -1.0753,2.465 -1.73521,3.03953 -0.65993,0.58228 -1.52948,0.87342 -2.60864,0.87343 l -2.17774,0 0,-2.73674 1.17621,0 c 0.63663,-1e-5 1.09857,-0.11258 1.38584,-0.33773 0.29502,-0.22515 0.52405,-0.62887 0.6871,-1.21115 l 0.10481,-0.36102 -5.24057,-13.54394"
       id="text3266"
       inkscape:connector-curvature="0" />
  </g>
</svg>
